<svg width="40" height="40" viewBox="0 0 40 40" fill="none" xmlns="http://www.w3.org/2000/svg">
<path d="M8.33333 35C7.41667 35 6.63194 34.6736 5.97917 34.0208C5.32639 33.3681 5 32.5833 5 31.6667V8.33333C5 7.41667 5.32639 6.63194 5.97917 5.97917C6.63194 5.32639 7.41667 5 8.33333 5H31.6667C32.5833 5 33.3681 5.32639 34.0208 5.97917C34.6736 6.63194 35 7.41667 35 8.33333V22.25C34.4722 22.0556 33.9306 21.9097 33.375 21.8125C32.8194 21.7153 32.25 21.6667 31.6667 21.6667V8.33333H8.33333V31.6667H21.6667C21.6667 32.25 21.7153 32.8194 21.8125 33.375C21.9097 33.9306 22.0556 34.4722 22.25 35H8.33333ZM31.6667 38.3333L29.3333 36L31.9583 33.3333H25V30H31.9583L29.3333 27.3333L31.6667 25L38.3333 31.6667L31.6667 38.3333ZM18.3333 28.3333H21.6667V21.6667H28.3333V18.3333H21.6667V11.6667H18.3333V18.3333H11.6667V21.6667H18.3333V28.3333Z" fill="#00DAE2"/>
</svg>
