<svg width="40" height="40" viewBox="0 0 40 40" fill="none" xmlns="http://www.w3.org/2000/svg">
<path d="M8.33325 36.6667C7.41658 36.6667 6.63186 36.3403 5.97909 35.6875C5.32631 35.0347 4.99992 34.25 4.99992 33.3333V14.5417C4.49992 14.2361 4.09714 13.8403 3.79159 13.3542C3.48603 12.8681 3.33325 12.3056 3.33325 11.6667V6.66667C3.33325 5.75 3.65964 4.96528 4.31242 4.3125C4.9652 3.65972 5.74992 3.33334 6.66658 3.33334H33.3333C34.2499 3.33334 35.0346 3.65972 35.6874 4.3125C36.3402 4.96528 36.6666 5.75 36.6666 6.66667V11.6667C36.6666 12.3056 36.5138 12.8681 36.2082 13.3542C35.9027 13.8403 35.4999 14.2361 34.9999 14.5417V33.3333C34.9999 34.25 34.6735 35.0347 34.0208 35.6875C33.368 36.3403 32.5833 36.6667 31.6666 36.6667H8.33325ZM8.33325 15V33.3333H31.6666V15H8.33325ZM6.66658 11.6667H33.3333V6.66667H6.66658V11.6667ZM14.9999 23.3333H24.9999V20H14.9999V23.3333Z" fill="#00DAE2"/>
</svg>
