<svg width="40" height="40" viewBox="0 0 40 40" fill="none" xmlns="http://www.w3.org/2000/svg">
<g clip-path="url(#clip0_78_5319)">
<path d="M30.0001 35L36.6667 28.3333L34.3334 26L31.6667 28.6667V21.7083H28.3334V28.6667L25.6667 26L23.3334 28.3333L30.0001 35ZM23.3334 40V36.6667H36.6667V40H23.3334ZM10.0001 33.3333C9.08341 33.3333 8.29869 33.007 7.64591 32.3542C6.99314 31.7014 6.66675 30.9167 6.66675 30V6.66668C6.66675 5.75001 6.99314 4.96529 7.64591 4.31251C8.29869 3.65973 9.08341 3.33334 10.0001 3.33334H21.6667L31.6667 13.3333V18.375H28.3334V15H20.0001V6.66668H10.0001V30H20.0001V33.3333H10.0001Z" fill="#00DAE2"/>
</g>
<defs>
<clipPath id="clip0_78_5319">
<rect width="40" height="40" fill="white"/>
</clipPath>
</defs>
</svg>
