<svg width="40" height="40" viewBox="0 0 40 40" fill="none" xmlns="http://www.w3.org/2000/svg">
<path d="M9.41675 16.7083L12.6667 18.0833C13.0556 17.3055 13.4584 16.5555 13.8751 15.8333C14.2917 15.1111 14.7501 14.3889 15.2501 13.6667L12.9167 13.2083L9.41675 16.7083ZM15.3334 20.1667L20.0834 24.875C21.2501 24.4305 22.5001 23.75 23.8334 22.8333C25.1667 21.9167 26.4167 20.875 27.5834 19.7083C29.5279 17.7639 31.0487 15.6042 32.1459 13.2292C33.2431 10.8542 33.7223 8.66666 33.5834 6.66666C31.5834 6.52777 29.389 7.00694 27.0001 8.10416C24.6112 9.20138 22.4445 10.7222 20.5001 12.6667C19.3334 13.8333 18.2917 15.0833 17.3751 16.4167C16.4584 17.75 15.7779 19 15.3334 20.1667ZM22.7501 17.4583C22.1112 16.8194 21.7917 16.0347 21.7917 15.1042C21.7917 14.1736 22.1112 13.3889 22.7501 12.75C23.389 12.1111 24.1806 11.7917 25.1251 11.7917C26.0695 11.7917 26.8612 12.1111 27.5001 12.75C28.139 13.3889 28.4584 14.1736 28.4584 15.1042C28.4584 16.0347 28.139 16.8194 27.5001 17.4583C26.8612 18.0972 26.0695 18.4167 25.1251 18.4167C24.1806 18.4167 23.389 18.0972 22.7501 17.4583ZM23.5417 30.8333L27.0417 27.3333L26.5834 25C25.8612 25.5 25.139 25.9514 24.4167 26.3542C23.6945 26.7569 22.9445 27.1528 22.1667 27.5417L23.5417 30.8333ZM36.5834 3.62499C37.1112 6.9861 36.7848 10.2569 35.6042 13.4375C34.4237 16.618 32.389 19.6528 29.5001 22.5417L30.3334 26.6667C30.4445 27.2222 30.4167 27.7639 30.2501 28.2917C30.0834 28.8194 29.8056 29.2778 29.4167 29.6667L22.4167 36.6667L18.9167 28.4583L11.7917 21.3333L3.58341 17.8333L10.5417 10.8333C10.9306 10.4444 11.3959 10.1667 11.9376 9.99999C12.4792 9.83333 13.0279 9.80555 13.5834 9.91666L17.7084 10.75C20.5973 7.8611 23.6251 5.81944 26.7917 4.62499C29.9584 3.43055 33.2223 3.09722 36.5834 3.62499ZM6.54175 26.625C7.51397 25.6528 8.70147 25.1597 10.1042 25.1458C11.507 25.1319 12.6945 25.6111 13.6667 26.5833C14.639 27.5555 15.1181 28.743 15.1042 30.1458C15.0904 31.5486 14.5973 32.7361 13.6251 33.7083C12.9306 34.4028 11.7709 35 10.1459 35.5C8.52092 36 6.27786 36.4444 3.41675 36.8333C3.80564 33.9722 4.25008 31.7292 4.75008 30.1042C5.25008 28.4792 5.8473 27.3194 6.54175 26.625ZM8.91675 28.9583C8.63897 29.2361 8.36119 29.743 8.08342 30.4792C7.80564 31.2153 7.61119 31.9583 7.50008 32.7083C8.25008 32.5972 8.99314 32.4097 9.72925 32.1458C10.4654 31.8819 10.9723 31.6111 11.2501 31.3333C11.5834 31 11.764 30.5972 11.7917 30.125C11.8195 29.6528 11.6667 29.25 11.3334 28.9167C11.0001 28.5833 10.5973 28.4236 10.1251 28.4375C9.65286 28.4514 9.25008 28.625 8.91675 28.9583Z" fill="#00DAE2"/>
</svg>
