<svg width="40" height="40" viewBox="0 0 40 40" fill="none" xmlns="http://www.w3.org/2000/svg">
<g clip-path="url(#clip0_78_5323)">
<path d="M6.66659 33.3333C5.74992 33.3333 4.9652 33.0069 4.31242 32.3542C3.65964 31.7014 3.33325 30.9167 3.33325 30V9.99999C3.33325 9.08332 3.65964 8.2986 4.31242 7.64582C4.9652 6.99305 5.74992 6.66666 6.66659 6.66666H33.3333C34.2499 6.66666 35.0346 6.99305 35.6874 7.64582C36.3402 8.2986 36.6666 9.08332 36.6666 9.99999V20H6.66659V30H23.3333V33.3333H6.66659ZM6.66659 13.3333H33.3333V9.99999H6.66659V13.3333ZM31.6666 36.6667V31.6667H26.6666V28.3333H31.6666V23.3333H34.9999V28.3333H39.9999V31.6667H34.9999V36.6667H31.6666Z" fill="#00DAE2"/>
</g>
<defs>
<clipPath id="clip0_78_5323">
<rect width="40" height="40" fill="white"/>
</clipPath>
</defs>
</svg>
